<?xml version="1.0" encoding="UTF-8"?>
<svg xmlns="http://www.w3.org/2000/svg" xmlns:xlink="http://www.w3.org/1999/xlink" width="710pt" height="230pt" viewBox="0 0 710 230" version="1.1">
<g id="surface1">
<path style=" stroke:none;fill-rule:nonzero;fill:rgb(0%,0%,0%);fill-opacity:1;" d="M 75.5 46.640625 C 64.699219 48.800781 61.730469 49.601562 56.5 51.773438 C 37.761719 59.558594 21.832031 76.101562 14.976562 94.898438 C 1.996094 130.5 15.914062 168.109375 49.199219 187.378906 L 53.898438 190.101562 L 54.359375 187.800781 C 55.515625 182 56.96875 135.480469 56 135.152344 C 53.515625 134.296875 48.75 129.398438 46.707031 125.601562 C 44.660156 121.800781 44.476562 119.949219 44.199219 100.25 L 43.898438 79 L 48.898438 79 L 49.199219 100.449219 C 49.476562 120.351562 49.648438 122.101562 51.574219 124.699219 C 53.429688 127.199219 58.71875 131.40625 61 132.191406 C 61.535156 132.375 61.308594 144.300781 60.449219 161.5 C 59.648438 177.5 58.992188 190.8125 58.980469 191.199219 C 58.957031 192.101562 68.917969 195.382812 69.601562 194.699219 C 69.875 194.425781 69.425781 180.351562 68.601562 163.351562 C 67.742188 145.75 67.488281 132.359375 68 132.175781 C 70.320312 131.339844 75.523438 127.199219 77.398438 124.699219 C 79.347656 122.101562 79.523438 120.351562 79.800781 100.449219 L 80.101562 79 L 85.101562 79 L 84.800781 100.25 C 84.519531 120.050781 84.347656 121.785156 82.269531 125.699219 C 80.566406 128.898438 75.222656 134.183594 72.300781 135.554688 C 71.746094 135.816406 74.898438 195.300781 75.5 195.898438 C 76.5625 196.960938 96.199219 196.132812 102 194.78125 L 107.5 193.5 L 108 158 L 91.699219 158 L 92.394531 148.699219 C 94.726562 117.398438 99.9375 94.507812 107.148438 83.898438 C 110.683594 78.699219 116.191406 75 120.398438 75 L 123 75 L 123 130.5 C 123 161 123.359375 186 123.800781 186 C 124.234375 186 127.601562 183.605469 131.199219 180.734375 C 150.238281 165.546875 160.246094 145.199219 160.335938 121.5 C 160.386719 108.199219 158.667969 100.867188 152.609375 88.5 C 141.988281 66.824219 122.601562 51.855469 99.398438 47.417969 C 92.398438 46.078125 80.28125 45.683594 75.5 46.640625 Z M 57 99.5 C 57 117.101562 56.789062 120 55.5 120 C 54.210938 120 54 117.101562 54 99.5 C 54 81.898438 54.210938 79 55.5 79 C 56.789062 79 57 81.898438 57 99.5 Z M 66 99.5 C 66 117.101562 65.789062 120 64.5 120 C 63.210938 120 63 117.101562 63 99.5 C 63 81.898438 63.210938 79 64.5 79 C 65.789062 79 66 81.898438 66 99.5 Z M 75 99.5 C 75 117.101562 74.789062 120 73.5 120 C 72.210938 120 72 117.101562 72 99.5 C 72 81.898438 72.210938 79 73.5 79 C 74.789062 79 75 81.898438 75 99.5 "/>
<path style=" stroke:none;fill-rule:nonzero;fill:rgb(0%,0%,0%);fill-opacity:1;" d="M 213.898438 73.875 C 198.339844 77.140625 191.964844 94.898438 200.257812 111.898438 C 201.585938 114.625 206.898438 120.898438 213.300781 127.300781 C 224.199219 138.199219 227 142.390625 227 147.800781 C 227 154.398438 218.113281 157.484375 214.042969 152.300781 C 212.941406 150.898438 212 149.144531 212 148.5 C 212 146.171875 209 144.800781 203.898438 144.800781 C 196.699219 144.800781 195.371094 146.347656 196.9375 152.898438 C 198.636719 160 202.730469 165.207031 209.101562 168.378906 C 225.851562 176.71875 244.269531 164.199219 242.753906 145.5 C 242.003906 136.234375 238.378906 130.199219 225.871094 117.398438 C 211.796875 103 209.066406 96.832031 214.398438 91.5 C 217.992188 87.910156 226 88.601562 226 92.5 C 226 95.894531 236.699219 97.417969 240.601562 94.582031 C 242.339844 93.316406 242.390625 92.800781 241.230469 88.5 C 239.527344 82.199219 236.699219 78.421875 231.800781 75.90625 C 227.355469 73.625 219.398438 72.722656 213.898438 73.875 "/>
<path style=" stroke:none;fill-rule:nonzero;fill:rgb(0%,0%,0%);fill-opacity:1;" d="M 272.699219 74.378906 C 267.199219 75.851562 262.796875 79.601562 259.640625 85.5 C 257.605469 89.304688 257.484375 91 257.183594 120.398438 C 256.824219 155.300781 257.238281 157.949219 264.183594 165.101562 C 268.851562 169.90625 274.101562 171.382812 284.300781 170.769531 C 290.898438 170.371094 292.738281 169.855469 296.25 167.398438 C 298.679688 165.703125 301.457031 162.449219 302.949219 159.550781 L 305.5 154.601562 L 305.5 122.050781 C 305.5 90.449219 305.4375 89.378906 303.304688 85.398438 C 297.675781 74.898438 286.199219 70.765625 272.699219 74.378906 Z M 287.765625 92.601562 C 290.101562 95.199219 290.101562 95.199219 289.800781 123.199219 L 289.5 151.199219 L 287.101562 153.148438 C 284.101562 155.585938 278.898438 155.585938 275.898438 153.148438 L 273.5 151.199219 L 273.199219 123.5 C 272.9375 99.398438 273.105469 95.488281 274.480469 93.398438 C 277.703125 88.5 283.753906 88.136719 287.765625 92.601562 "/>
<path style=" stroke:none;fill-rule:nonzero;fill:rgb(0%,0%,0%);fill-opacity:1;" d="M 379.800781 73.992188 C 378.144531 75.011719 378 77.851562 378 109.851562 C 378 138.648438 378.269531 145.507812 379.566406 149.898438 C 383.554688 163.398438 392.605469 170.984375 404.699219 170.953125 C 417.679688 170.921875 427.769531 161.699219 430.921875 147 C 431.730469 143.222656 432.007812 131 431.800781 108 L 431.5 74.5 L 426.898438 73.601562 C 423.5 72.933594 421.542969 73.066406 419.398438 74.101562 L 416.5 75.5 L 416 110.5 C 415.570312 140.5 415.265625 145.929688 413.859375 148.5 C 408.773438 157.800781 400.511719 157.800781 395.992188 148.5 C 394.125 144.660156 394 142.25 394 110.449219 C 394 91.75 393.605469 75.871094 393.117188 75.101562 C 392.007812 73.332031 382.199219 72.519531 379.800781 73.992188 "/>
<path style=" stroke:none;fill-rule:nonzero;fill:rgb(0%,0%,0%);fill-opacity:1;" d="M 453.199219 74.199219 C 452.300781 75.101562 452 87.199219 452 122.601562 C 452 175.300781 451.324219 171 459.601562 171 C 468.160156 171 468 171.398438 468 150 L 468 131 L 474.949219 131 C 480.949219 131 482.109375 130.699219 483.441406 128.800781 C 485.234375 126.246094 485.476562 121.398438 484.007812 117.601562 C 483.054688 115.140625 482.601562 115 475.5 115 L 468 115 L 468 89 L 489 89 L 490.058594 86.300781 C 491.429688 82.800781 490.707031 75.101562 488.898438 73.957031 C 486.699219 72.5625 454.621094 72.78125 453.199219 74.199219 "/>
<path style=" stroke:none;fill-rule:nonzero;fill:rgb(0%,0%,0%);fill-opacity:1;" d="M 521 74.367188 C 515.398438 75.886719 512.492188 77.867188 509.527344 82.199219 C 505.152344 88.585938 504.828125 91.699219 505.175781 124.101562 C 505.5 154.601562 505.5 154.601562 508.050781 159.550781 C 509.59375 162.550781 512.292969 165.679688 514.898438 167.5 C 518.980469 170.34375 519.699219 170.5 528.898438 170.5 C 541.101562 170.5 545.078125 168.714844 549.617188 161.199219 C 552.425781 156.550781 552.757812 155.101562 553.351562 144.800781 C 554.628906 122.699219 554.140625 94.8125 552.371094 88.898438 C 548.597656 76.289062 535.800781 70.363281 521 74.367188 Z M 535.5 92.121094 C 537.386719 93.988281 537.515625 95.601562 537.800781 120.300781 C 537.964844 134.699219 537.835938 147.535156 537.515625 148.800781 C 535.9375 155 527.984375 157.085938 523.398438 152.5 L 521 150.101562 L 521 122.75 C 521 99.25 521.226562 95.074219 522.613281 93.101562 C 525.773438 88.601562 531.5 88.164062 535.5 92.121094 "/>
<path style=" stroke:none;fill-rule:nonzero;fill:rgb(0%,0%,0%);fill-opacity:1;" d="M 584.199219 73.941406 C 578.199219 75.476562 573.039062 79.738281 570.433594 85.300781 C 568.023438 90.449219 568 90.800781 568 121.398438 C 568 154.898438 568.328125 157.5 573.332031 163.601562 C 577.664062 168.886719 583 171 592 171 C 600.898438 171 606.214844 168.957031 610.460938 163.898438 C 615.90625 157.414062 616 156.699219 616 122.300781 C 616 92.5 615.871094 90.21875 613.945312 86 C 611.386719 80.398438 609.453125 78.269531 604.800781 75.910156 C 600.605469 73.785156 589.101562 72.6875 584.199219 73.941406 Z M 596 90.546875 C 600.636719 92.910156 601.15625 96.601562 600.8125 124.601562 C 600.5 149.699219 600.488281 149.808594 598.070312 152.398438 C 594.710938 156 589.289062 156 585.929688 152.398438 C 583.511719 149.808594 583.5 149.699219 583.1875 124.699219 C 582.84375 96.898438 583.371094 92.988281 587.800781 90.578125 C 591.230469 88.710938 592.398438 88.707031 596 90.546875 "/>
<path style=" stroke:none;fill-rule:nonzero;fill:rgb(0%,0%,0%);fill-opacity:1;" d="M 636 73.699219 C 635.199219 74.019531 634.148438 74.8125 633.75 75.398438 C 633.339844 76.003906 633 97.25 633 122.550781 C 633 157.050781 633.300781 168.902344 634.199219 169.800781 C 635.027344 170.628906 639.949219 171 650.050781 171 C 663.148438 171 664.964844 170.792969 667.199219 169.042969 C 673.914062 163.796875 678 146.898438 678 124.398438 C 678 100.898438 674.390625 84.648438 667.488281 77.101562 L 664.199219 73.5 L 650.851562 73.300781 C 643.550781 73.191406 636.820312 73.371094 636 73.699219 Z M 656.976562 90.5 C 661.363281 95.746094 663.6875 130.398438 660.617188 144.800781 C 658.675781 153.898438 657.738281 155.148438 653.101562 154.78125 L 649.5 154.5 L 649.25 122.550781 C 649.054688 97.648438 649.285156 90.421875 650.300781 89.789062 C 652.300781 88.546875 655.636719 88.898438 656.976562 90.5 "/>
<path style=" stroke:none;fill-rule:nonzero;fill:rgb(0%,0%,0%);fill-opacity:1;" d="M 326.5 74.855469 L 323.5 75.5 L 323.5 170.5 L 359.898438 171 L 360.570312 167.398438 C 361.386719 163 360.457031 156.910156 358.800781 155.839844 C 358.082031 155.375 353.351562 155 348.25 155 L 339 155 L 339 115.449219 C 339 84.648438 338.714844 75.8125 337.699219 75.496094 C 334.699219 74.566406 329.292969 74.257812 326.5 74.855469 "/>
<path style=" stroke:none;fill-rule:nonzero;fill:rgb(0%,0%,0%);fill-opacity:1;" d="M 113.398438 83.5 C 106.289062 90.609375 100.210938 114.199219 97.476562 145.300781 L 96.800781 153 L 112 153 L 112 172 C 112 191.5 112.121094 192.035156 116.101562 189.914062 C 117.941406 188.929688 118 187.25 118 134.949219 C 118 98.050781 117.667969 81 116.949219 81 C 116.363281 81 114.800781 82.101562 113.398438 83.5 "/>
</g>
</svg>
